<svg xmlns="http://www.w3.org/2000/svg" viewBox="0 0 960 600">
  <defs>
    <pattern id="grid" width="72" height="72" patternUnits="userSpaceOnUse">
      <path d="M72 0H0v72" fill="none" stroke="#d6dde8" stroke-width="2"/>
    </pattern>
    <radialGradient id="cell" cx="50%" cy="50%" r="50%">
      <stop offset="0" stop-color="#ff5dbb"/>
      <stop offset="0.42" stop-color="#4e7df2"/>
      <stop offset="1" stop-color="#0b1020"/>
    </radialGradient>
  </defs>
  <rect width="960" height="600" fill="#f8fafc"/>
  <rect width="960" height="600" fill="url(#grid)"/>
  <g opacity=".92">
    <circle cx="120" cy="84" r="44" fill="url(#cell)"/><circle cx="300" cy="84" r="44" fill="url(#cell)"/><circle cx="480" cy="84" r="44" fill="url(#cell)"/><circle cx="660" cy="84" r="44" fill="url(#cell)"/><circle cx="840" cy="84" r="44" fill="url(#cell)"/>
    <circle cx="210" cy="210" r="44" fill="url(#cell)"/><circle cx="390" cy="210" r="44" fill="url(#cell)"/><circle cx="570" cy="210" r="44" fill="url(#cell)"/><circle cx="750" cy="210" r="44" fill="url(#cell)"/>
    <circle cx="120" cy="336" r="44" fill="url(#cell)"/><circle cx="300" cy="336" r="44" fill="url(#cell)"/><circle cx="480" cy="336" r="44" fill="url(#cell)"/><circle cx="660" cy="336" r="44" fill="url(#cell)"/><circle cx="840" cy="336" r="44" fill="url(#cell)"/>
    <circle cx="210" cy="462" r="44" fill="url(#cell)"/><circle cx="390" cy="462" r="44" fill="url(#cell)"/><circle cx="570" cy="462" r="44" fill="url(#cell)"/><circle cx="750" cy="462" r="44" fill="url(#cell)"/>
  </g>
</svg>
