<svg xmlns="http://www.w3.org/2000/svg" viewBox="0 0 960 600">
  <defs>
    <linearGradient id="wash" x1="0" y1="0" x2="1" y2="1">
      <stop offset="0" stop-color="#f4fbff"/>
      <stop offset="0.38" stop-color="#86d8f8"/>
      <stop offset="0.72" stop-color="#315bf6"/>
      <stop offset="1" stop-color="#130058"/>
    </linearGradient>
  </defs>
  <rect width="960" height="600" fill="url(#wash)"/>
  <g fill="none" stroke-linecap="round">
    <path d="M-40 98c150 108 300 108 450 0s300-108 450 0 300 108 450 0" stroke="#fff" stroke-opacity=".8" stroke-width="20"/>
    <path d="M-40 202c150 108 300 108 450 0s300-108 450 0 300 108 450 0" stroke="#08103c" stroke-opacity=".22" stroke-width="24"/>
    <path d="M-40 306c150 108 300 108 450 0s300-108 450 0 300 108 450 0" stroke="#fff" stroke-opacity=".74" stroke-width="20"/>
    <path d="M-40 410c150 108 300 108 450 0s300-108 450 0 300 108 450 0" stroke="#08103c" stroke-opacity=".24" stroke-width="24"/>
    <path d="M-40 514c150 108 300 108 450 0s300-108 450 0 300 108 450 0" stroke="#fff" stroke-opacity=".82" stroke-width="20"/>
  </g>
</svg>
