<svg xmlns="http://www.w3.org/2000/svg" viewBox="0 0 960 600">
  <defs>
    <radialGradient id="bg" cx="50%" cy="45%" r="70%">
      <stop offset="0" stop-color="#fff4d2"/>
      <stop offset="0.34" stop-color="#ff6f2f"/>
      <stop offset="0.67" stop-color="#490086"/>
      <stop offset="1" stop-color="#05040f"/>
    </radialGradient>
    <filter id="soft"><feGaussianBlur stdDeviation="9"/></filter>
  </defs>
  <rect width="960" height="600" fill="#05040f"/>
  <g filter="url(#soft)">
    <path d="M130 560C190 420 272 316 356 270c78-43 135-94 141-210 88 116 116 224 71 321 80-58 135-126 138-220 98 116 130 242 86 374-33 100-121 156-258 156H341c-106 0-183-45-211-131Z" fill="url(#bg)"/>
    <path d="M379 552c18-104 94-147 107-236 49 63 58 121 28 174 42-24 73-65 91-122 51 71 55 137 11 198-44 63-190 62-237-14Z" fill="#fff1b8"/>
  </g>
</svg>
